<svg width="779" height="365" viewBox="0 0 779 365" fill="none" xmlns="http://www.w3.org/2000/svg">
<ellipse opacity="0.8" cx="365.675" cy="182.466" rx="354" ry="87.5" transform="rotate(-16.1414 365.675 182.466)" fill="#93C5FD"/>
<ellipse opacity="0.8" cx="448.849" cy="203" rx="324.029" ry="45.7195" transform="rotate(-16.1414 448.849 203)" fill="#3B82F6"/>
<path d="M527.229 228.145C469.804 247.479 378.843 284.45 307.718 294.297C236.593 304.143 174.445 306.321 130.373 300.512C86.3021 294.703 62.6232 281.211 62.8039 262.013C62.9846 242.815 87.0155 218.919 131.378 193.824C175.74 168.729 238.103 143.753 309.334 122.554C380.566 101.355 456.925 85.0462 527.229 76.0159C597.533 66.9857 658.089 65.7082 700.029 72.3707C741.97 79.0332 766 93 760 120.5L757 122L753 122L749.5 121L743 117.5L734.5 113.5C707.696 99.3393 666.5 113 635.804 104C601.875 98.6103 575.804 93.339 492.804 104C435.93 111.305 386.509 117.511 328.885 134.661C271.261 151.81 220.811 172.015 184.923 192.316C149.036 212.617 129.596 231.948 129.449 247.479C129.303 263.01 148.459 273.924 184.111 278.623C219.763 283.323 270.039 281.561 327.577 273.595C385.115 265.63 380.53 270.522 437.5 253L527.229 228.145Z" fill="#FEDCA9" fill-opacity="0.81"/>
<g filter="url(#filter0_df_7_266)">
<path d="M133.894 179.796C131.262 161.881 117.466 152.457 99.1751 153.547C79.6075 154.713 64.9291 168.679 66.3736 192.925C67.8118 217.066 83.6254 229.322 103.618 228.131C124.888 226.864 134.785 211.475 135.043 199.08L115.042 200.129C114.419 206.392 110.253 210.517 103.022 210.948C93.4151 211.521 87.4442 205.046 86.6501 191.717C85.8983 179.098 90.8388 171.262 100.764 170.67C108.35 170.218 112.941 174.427 113.901 180.987L133.894 179.796ZM213.706 184.148C212.262 159.901 195.887 147.785 176.178 148.96C156.327 150.142 141.649 164.108 143.093 188.355C144.529 212.46 160.77 224.726 180.621 223.543C200.331 222.369 215.151 208.395 213.706 184.148ZM193.43 185.356C194.207 198.401 189.383 205.803 179.599 206.386C169.816 206.969 164.147 200.192 163.37 187.147C162.592 174.102 167.416 166.699 177.2 166.117C186.984 165.534 192.653 172.311 193.43 185.356ZM283.478 143.563L263.768 144.737L266.032 182.738L265.465 182.772L237.395 146.309L220.663 147.305L224.988 219.904L244.698 218.73L242.425 180.587L242.851 180.562L271.355 217.142L287.803 216.162L283.478 143.563ZM333.288 163.363L352.146 162.24C351.226 147.994 339.676 139.219 322.093 140.267C304.83 141.295 293.189 151.309 294.119 165.128C294.759 176.473 303.004 182.314 316.037 184.313L323.361 185.442C331.549 186.733 334.435 188.588 334.702 191.881C334.844 195.465 331.733 198.177 325.423 198.552C317.873 199.002 313.195 195.723 312.479 189.078L293.762 190.193C294.918 208.41 307.74 215.828 326.67 214.7C345.068 213.604 355.619 205.007 354.837 190.681C354.107 179.626 347.051 172.255 330.823 169.771L324.792 168.85C317.828 167.806 314.624 165.969 314.594 162.485C314.44 159.292 316.959 156.794 323.056 156.431C329.437 156.051 332.617 158.672 333.288 163.363ZM363.61 211.646L415.79 208.537L414.844 192.656L382.373 194.59L381.629 182.113L411.548 180.33L410.602 164.449L380.683 166.232L379.94 153.754L412.553 151.811L411.607 135.93L359.284 139.047L363.61 211.646ZM425.706 207.946L445.416 206.772L443.988 182.809L450.794 182.403L464.983 205.606L486.394 204.331L470.034 178.127C477.54 173.944 481.728 166.615 481.129 156.548C480.208 141.092 468.847 132.52 452.718 133.481L421.381 135.348L425.706 207.946ZM443.076 167.495L442.028 149.913L448.976 149.499C455.889 149.087 460.197 151.534 460.568 157.773C460.938 163.976 456.936 166.669 450.024 167.081L443.076 167.495ZM505.669 130.326L483.407 131.652L511.696 202.823L538.637 201.218L558.275 127.192L536.013 128.518L524.174 180.593L523.607 180.627L505.669 130.326ZM576.558 198.959L579.913 184.814L603.876 183.387L608.887 197.033L630.156 195.766L601.868 124.595L574.927 126.2L555.289 200.226L576.558 198.959ZM583.501 169.801L589.305 145.407L589.872 145.374L598.531 168.906L583.501 169.801ZM671.001 156.905L636.971 158.932L637.849 173.679L671.88 171.651L671.001 156.905Z" fill="black"/>
</g>
<g filter="url(#filter1_df_7_266)">
<path d="M150.563 221.652C150.267 208.075 140.875 199.781 127.161 198.894C112.49 197.945 100.269 206.976 99.093 225.155C97.9222 243.255 108.553 253.844 123.543 254.814C139.49 255.845 148.285 245.312 149.628 236.111L134.644 235.035C133.599 239.638 130.116 242.321 124.694 241.971C117.492 241.505 113.649 236.132 114.296 226.139C114.908 216.677 119.312 211.304 126.754 211.785C132.442 212.153 135.467 215.712 135.573 220.683L150.563 221.652ZM180.999 257.783C197.584 258.856 208.769 249.331 209.87 232.321C210.97 215.311 201.105 204.424 184.308 203.338L163.577 201.997L160.056 256.429L180.999 257.783ZM175.645 244.84L177.543 215.498L182.752 215.835C191.257 216.385 195.722 219.983 194.986 231.358C194.25 242.734 189.359 245.727 181.279 245.204L175.645 244.84Z" fill="#1D4ED8"/>
</g>
<defs>
<filter id="filter0_df_7_266" x="60.1519" y="118.613" width="617.071" height="120.604" filterUnits="userSpaceOnUse" color-interpolation-filters="sRGB">
<feFlood flood-opacity="0" result="BackgroundImageFix"/>
<feColorMatrix in="SourceAlpha" type="matrix" values="0 0 0 0 0 0 0 0 0 0 0 0 0 0 0 0 0 0 127 0" result="hardAlpha"/>
<feOffset dy="5"/>
<feGaussianBlur stdDeviation="2"/>
<feComposite in2="hardAlpha" operator="out"/>
<feColorMatrix type="matrix" values="0 0 0 0 0 0 0 0 0 0 0 0 0 0 0 0 0 0 0.3 0"/>
<feBlend mode="normal" in2="BackgroundImageFix" result="effect1_dropShadow_7_266"/>
<feBlend mode="normal" in="SourceGraphic" in2="effect1_dropShadow_7_266" result="shape"/>
<feGaussianBlur stdDeviation="0.5" result="effect2_foregroundBlur_7_266"/>
</filter>
<filter id="filter1_df_7_266" x="93.2844" y="196.695" width="122.394" height="71.5861" filterUnits="userSpaceOnUse" color-interpolation-filters="sRGB">
<feFlood flood-opacity="0" result="BackgroundImageFix"/>
<feColorMatrix in="SourceAlpha" type="matrix" values="0 0 0 0 0 0 0 0 0 0 0 0 0 0 0 0 0 0 127 0" result="hardAlpha"/>
<feOffset dy="4"/>
<feGaussianBlur stdDeviation="2"/>
<feComposite in2="hardAlpha" operator="out"/>
<feColorMatrix type="matrix" values="0 0 0 0 0 0 0 0 0 0 0 0 0 0 0 0 0 0 0.25 0"/>
<feBlend mode="normal" in2="BackgroundImageFix" result="effect1_dropShadow_7_266"/>
<feBlend mode="normal" in="SourceGraphic" in2="effect1_dropShadow_7_266" result="shape"/>
<feGaussianBlur stdDeviation="0.25" result="effect2_foregroundBlur_7_266"/>
</filter>
</defs>
</svg>
